
	<svg width="0" height="0" class="hidden">
<!-- Dashboard -->
	<symbol xmlns="http://www.w3.org/2000/svg" viewBox="0 0 23 21.1" id="dashboard" fill="none">
		<path d="M10 12.3H4C3.83431 12.3 3.7 12.1657 3.7 12V4C3.7 3.83431 3.83431 3.7 4 3.7H10C10.1657 3.7 10.3 3.83431 10.3 4V12C10.3 12.1657 10.1657 12.3 10 12.3ZM10 20.3H4C3.83431 20.3 3.7 20.1657 3.7 20V16C3.7 15.8343 3.83431 15.7 4 15.7H10C10.1657 15.7 10.3 15.8343 10.3 16V20C10.3 20.1657 10.1657 20.3 10 20.3ZM20 20.3H14C13.8343 20.3 13.7 20.1657 13.7 20V12C13.7 11.8343 13.8343 11.7 14 11.7H20C20.1657 11.7 20.3 11.8343 20.3 12V20C20.3 20.1657 20.1657 20.3 20 20.3ZM13.7 8V4C13.7 3.83431 13.8343 3.7 14 3.7H20C20.1657 3.7 20.3 3.83431 20.3 4V8C20.3 8.16569 20.1657 8.3 20 8.3H14C13.8343 8.3 13.7 8.16569 13.7 8Z" stroke="currentColor" stroke-width="1.4" />
	</symbol>
	<!-- Product -->
	<symbol xmlns="http://www.w3.org/2000/svg" viewBox="0 0 24 24" id="product" fill="none">
		<path fill-rule="evenodd" clip-rule="evenodd" d="M5.27667 3.17578C4.34838 3.17578 3.59585 3.92831 3.59585 4.8566V5.697C3.59585 5.74462 3.59783 5.79178 3.60172 5.8384C2.61942 6.18285 1.91504 7.11828 1.91504 8.21822V18.3031C1.91504 19.6955 3.04383 20.8243 4.43626 20.8243H19.5636C20.956 20.8243 22.0848 19.6955 22.0848 18.3031V8.21822C22.0848 6.82579 20.956 5.697 19.5636 5.697H11.894C11.5208 4.24711 10.2047 3.17578 8.63829 3.17578H5.27667ZM10.0942 5.697C9.80363 5.19461 9.26043 4.8566 8.63829 4.8566H5.27667V5.697H10.0942ZM4.43626 7.37782C3.97212 7.37782 3.59585 7.75408 3.59585 8.21822V18.3031C3.59585 18.7673 3.97212 19.1435 4.43626 19.1435H19.5636C20.0277 19.1435 20.404 18.7673 20.404 18.3031V8.21822C20.404 7.75408 20.0277 7.37782 19.5636 7.37782H4.43626Z" fill="currentColor" />
	</symbol>
	<!-- Product -->
	<symbol xmlns="http://www.w3.org/2000/svg" viewBox="0 0 24 24" id="product" fill="none">
		<path fill-rule="evenodd" clip-rule="evenodd" d="M5.27667 3.17578C4.34838 3.17578 3.59585 3.92831 3.59585 4.8566V5.697C3.59585 5.74462 3.59783 5.79178 3.60172 5.8384C2.61942 6.18285 1.91504 7.11828 1.91504 8.21822V18.3031C1.91504 19.6955 3.04383 20.8243 4.43626 20.8243H19.5636C20.956 20.8243 22.0848 19.6955 22.0848 18.3031V8.21822C22.0848 6.82579 20.956 5.697 19.5636 5.697H11.894C11.5208 4.24711 10.2047 3.17578 8.63829 3.17578H5.27667ZM10.0942 5.697C9.80363 5.19461 9.26043 4.8566 8.63829 4.8566H5.27667V5.697H10.0942ZM4.43626 7.37782C3.97212 7.37782 3.59585 7.75408 3.59585 8.21822V18.3031C3.59585 18.7673 3.97212 19.1435 4.43626 19.1435H19.5636C20.0277 19.1435 20.404 18.7673 20.404 18.3031V8.21822C20.404 7.75408 20.0277 7.37782 19.5636 7.37782H4.43626Z" fill="currentColor" />
	</symbol>
	<!-- Order -->
	<symbol xmlns="http://www.w3.org/2000/svg" viewBox="0 0 24 24" id="order">
		<path d="M13 7H7V5H13V7Z" fill="currentColor" />
		<path d="M13 11H7V9H13V11Z" fill="currentColor" />
		<path d="M7 15H13V13H7V15Z" fill="currentColor" />
		<path fill-rule="evenodd" clip-rule="evenodd" d="M3 19V1H17V5H21V23H7V19H3ZM15 17V3H5V17H15ZM17 7V19H9V21H19V7H17Z" fill="currentColor" />
	</symbol>
	<!-- User -->
	<symbol xmlns="http://www.w3.org/2000/svg" viewBox="0 0 24 24" id="user">
		<path fill-rule="evenodd" clip-rule="evenodd" d="M8 11C10.2091 11 12 9.20914 12 7C12 4.79086 10.2091 3 8 3C5.79086 3 4 4.79086 4 7C4 9.20914 5.79086 11 8 11ZM8 9C9.10457 9 10 8.10457 10 7C10 5.89543 9.10457 5 8 5C6.89543 5 6 5.89543 6 7C6 8.10457 6.89543 9 8 9Z" fill="currentColor" />
		<path d="M11 14C11.5523 14 12 14.4477 12 15V21H14V15C14 13.3431 12.6569 12 11 12H5C3.34315 12 2 13.3431 2 15V21H4V15C4 14.4477 4.44772 14 5 14H11Z" fill="currentColor" />
		<path d="M22 11H16V13H22V11Z" fill="currentColor" />
		<path d="M16 15H22V17H16V15Z" fill="currentColor" />
		<path d="M22 7H16V9H22V7Z" fill="currentColor" />
	</symbol>
	<!-- CreditCard -->
	<symbol xmlns="http://www.w3.org/2000/svg" viewBox="0 0 24 24" id="creditCard" fill="none">
		<path d="M4 15C4 15.5523 4.44772 16 5 16H9C9.55228 16 10 15.5523 10 15C10 14.4477 9.55228 14 9 14H5C4.44772 14 4 14.4477 4 15Z" fill="currentColor" />
		<path fill-rule="evenodd" clip-rule="evenodd" d="M4 21C1.79086 21 0 19.2091 0 17V7C0 4.79086 1.79086 3 4 3H20C22.2091 3 24 4.79086 24 7V17C24 19.2091 22.2091 21 20 21H4ZM20 19H4C2.89543 19 2 18.1046 2 17V10H22V17C22 18.1046 21.1046 19 20 19ZM22 8H2V7C2 5.89543 2.89543 5 4 5H20C21.1046 5 22 5.89543 22 7V8Z" fill="currentColor" />
	</symbol>
	<!-- Pen -->
	<symbol xmlns="http://www.w3.org/2000/svg" viewBox="0 0 24 24" id="pen" fill="none">
		<path fill-rule="evenodd" clip-rule="evenodd" d="M21.2635 2.29289C20.873 1.90237 20.2398 1.90237 19.8493 2.29289L18.9769 3.16525C17.8618 2.63254 16.4857 2.82801 15.5621 3.75165L4.95549 14.3582L10.6123 20.0151L21.2189 9.4085C22.1426 8.48486 22.338 7.1088 21.8053 5.99367L22.6777 5.12132C23.0682 4.7308 23.0682 4.09763 22.6777 3.70711L21.2635 2.29289ZM16.9955 10.8035L10.6123 17.1867L7.78392 14.3582L14.1671 7.9751L16.9955 10.8035ZM18.8138 8.98525L19.8047 7.99429C20.1953 7.60376 20.1953 6.9706 19.8047 6.58007L18.3905 5.16586C18 4.77534 17.3668 4.77534 16.9763 5.16586L15.9853 6.15683L18.8138 8.98525Z" fill="currentColor" />
		<path d="M2 22.9502L4.12171 15.1717L9.77817 20.8289L2 22.9502Z" fill="currentColor" />
	</symbol>
	<!-- Slider -->
	<symbol xmlns="http://www.w3.org/2000/svg" viewBox="0 0 24 24" id="slider" fill="none">
		<g clip-path="url(#clip0)">
			<path fill-rule="evenodd" clip-rule="evenodd" d="M3 1.25H18.0029C18.8633 1.2525 19.6878 1.59541 20.2962 2.20382C20.9046 2.81222 21.2475 3.63668 21.25 4.4971L21.25 4.5L21.25 5.25H19.25V4.50177C19.2487 4.17018 19.1165 3.85252 18.882 3.61803C18.6475 3.38357 18.3299 3.25129 17.9983 3.25H3.00166C2.67011 3.25129 2.35249 3.38357 2.11803 3.61803C1.88357 3.85249 1.75129 4.17011 1.75 4.50166V16.4983C1.75129 16.8299 1.88357 17.1475 2.11803 17.382C2.35252 17.6165 2.67018 17.7487 3.00177 17.75H3.75V19.75H3L2.9971 19.75C2.13668 19.7475 1.31222 19.4046 0.703816 18.7962C0.0954084 18.1878 -0.247497 17.3633 -0.249996 16.5029L-0.25 16.5V4.4971C-0.247501 3.63668 0.0954085 2.81222 0.703816 2.20382C1.31222 1.59541 2.13668 1.2525 2.9971 1.25L3 1.25Z" fill="currentColor" />
			<path fill-rule="evenodd" clip-rule="evenodd" d="M6.65578 7C6.01746 7 5.5 7.51746 5.5 8.15578V19.5942C5.5 20.2325 6.01746 20.75 6.65578 20.75H21.0942C21.7325 20.75 22.25 20.2325 22.25 19.5942V8.15578C22.25 7.51746 21.7325 7 21.0942 7H6.65578ZM3.5 8.15578C3.5 6.41289 4.91289 5 6.65578 5H21.0942C22.8371 5 24.25 6.41289 24.25 8.15578V19.5942C24.25 21.3371 22.8371 22.75 21.0942 22.75H6.65578C4.91289 22.75 3.5 21.3371 3.5 19.5942V8.15578Z" fill="currentColor" />
			<path fill-rule="evenodd" clip-rule="evenodd" d="M17.4804 9.86353C17.2294 9.86353 17.0381 10.0637 17.0381 10.2956C17.0381 10.5274 17.2294 10.7276 17.4804 10.7276C17.7315 10.7276 17.9228 10.5274 17.9228 10.2956C17.9228 10.0637 17.7315 9.86353 17.4804 9.86353ZM15.0381 10.2956C15.0381 8.94563 16.1383 7.86353 17.4804 7.86353C18.8225 7.86353 19.9228 8.94563 19.9228 10.2956C19.9228 11.6455 18.8225 12.7276 17.4804 12.7276C16.1383 12.7276 15.0381 11.6455 15.0381 10.2956Z" fill="currentColor" />
			<path fill-rule="evenodd" clip-rule="evenodd" d="M9.31505 12.5888C9.78059 12.1789 10.3843 11.9608 11.0044 11.9785C11.6245 11.9963 12.2147 12.2487 12.656 12.6847L12.6571 12.6858L16.7423 16.7354C17.1345 17.1242 17.1373 17.7573 16.7485 18.1496C16.3597 18.5418 15.7265 18.5446 15.3343 18.1558L11.2503 14.1074C11.2502 14.1073 11.2504 14.1075 11.2503 14.1074C11.1693 14.0276 11.0607 13.981 10.947 13.9777C10.8333 13.9745 10.7225 14.0144 10.637 14.0896C10.637 14.0897 10.6371 14.0896 10.637 14.0896L5.16161 18.9206C4.74748 19.286 4.11555 19.2465 3.75015 18.8323C3.38476 18.4182 3.42428 17.7863 3.83841 17.4209L9.31505 12.5888Z" fill="currentColor" />
			<path fill-rule="evenodd" clip-rule="evenodd" d="M19.2989 16.9155C19.2125 16.8448 19.103 16.8084 18.9915 16.8135C18.88 16.8185 18.7742 16.8645 18.6946 16.9426C18.6943 16.9429 18.694 16.9432 18.6937 16.9435L13.1371 22.4598C12.7452 22.8489 12.112 22.8466 11.7229 22.4546C11.3338 22.0627 11.3361 21.4295 11.7281 21.0404L17.2893 15.5195C17.7212 15.0936 18.2955 14.8428 18.9013 14.8155C19.5072 14.7882 20.1018 14.9862 20.5702 15.3715L20.5724 15.3734L23.8874 18.116C24.3129 18.4681 24.3725 19.0984 24.0204 19.524C23.6684 19.9495 23.038 20.009 22.6125 19.657L19.2997 16.9162C19.2995 16.9159 19.2992 16.9157 19.2989 16.9155Z" fill="currentColor" />
		</g>
		<defs>
			<clipPath id="clip0">
				<rect width="24" height="24" fill="currentColor" />
			</clipPath>
		</defs>
	</symbol>
	<!-- Key -->
	<symbol viewBox="0 0 20 20" fill="none" xmlns="http://www.w3.org/2000/svg" id="key">
		<path fill-rule="evenodd" clip-rule="evenodd" d="M5 6.667a2.5 2.5 0 0 0-2.5 2.5v1.666a2.5 2.5 0 0 0 5 0h5V12.5h1.667v-1.667H15V12.5h1.667V9.167H7.5a2.5 2.5 0 0 0-2.5-2.5zm.833 4.166V9.167a.833.833 0 0 0-1.666 0v1.666a.833.833 0 1 0 1.666 0z" fill="currentColor">
		</path>
	</symbol>
	<!-- AboutUs -->
	<symbol xmlns="http://www.w3.org/2000/svg" viewBox="0 0 23 21.1" id="about">
		<path fill-rule="evenodd" clip-rule="evenodd" d="M12 17.75C12.5523 17.75 13 18.1977 13 18.75V21.75C13 22.3023 12.5523 22.75 12 22.75C11.4477 22.75 11 22.3023 11 21.75V18.75C11 18.1977 11.4477 17.75 12 17.75Z" fill="currentColor" />
		<path fill-rule="evenodd" clip-rule="evenodd" d="M12 8.75C12.5523 8.75 13 9.19772 13 9.75V12.75C13 13.3023 12.5523 13.75 12 13.75C11.4477 13.75 11 13.3023 11 12.75V9.75C11 9.19772 11.4477 8.75 12 8.75Z" fill="currentColor" />
		<path fill-rule="evenodd" clip-rule="evenodd" d="M12 1.25C12.5523 1.25 13 1.69772 13 2.25V3.75C13 4.30228 12.5523 4.75 12 4.75C11.4477 4.75 11 4.30228 11 3.75V2.25C11 1.69772 11.4477 1.25 12 1.25Z" fill="currentColor" />
		<path fill-rule="evenodd" clip-rule="evenodd" d="M4.91421 4.75L2.91421 6.75L4.91421 8.75H19.25V4.75H4.91421ZM4.81078 2.75C4.58088 2.74998 4.35322 2.79527 4.14083 2.88327C3.92848 2.97124 3.73555 3.10019 3.57305 3.26274C3.57297 3.26281 3.57289 3.26289 3.57282 3.26297L0.792893 6.04289C0.402369 6.43342 0.402369 7.06658 0.792893 7.45711L3.57282 10.237C3.57289 10.2371 3.57297 10.2372 3.57305 10.2373C3.73555 10.3998 3.92848 10.5288 4.14083 10.6167C4.35323 10.7047 4.58088 10.75 4.81078 10.75C4.81083 10.75 4.81089 10.75 4.81094 10.75H19.5C19.9641 10.75 20.4092 10.5656 20.7374 10.2374C21.0656 9.90925 21.25 9.46413 21.25 9V4.5C21.25 4.03587 21.0656 3.59075 20.7374 3.26256C20.4092 2.93437 19.9641 2.75 19.5 2.75H4.81094C4.81089 2.75 4.81083 2.75 4.81078 2.75Z" fill="currentColor" />
		<path fill-rule="evenodd" clip-rule="evenodd" d="M3.26256 12.2626C3.59075 11.9344 4.03587 11.75 4.5 11.75H19.1891C19.1891 11.75 19.1892 11.75 19.1892 11.75C19.4191 11.75 19.6468 11.7953 19.8592 11.8833C20.0716 11.9713 20.2646 12.1003 20.4272 12.263L23.2071 15.0429C23.5976 15.4334 23.5976 16.0666 23.2071 16.4571L20.4272 19.237C20.2646 19.3997 20.0716 19.5287 19.8592 19.6167C19.6468 19.7047 19.4191 19.75 19.1892 19.75C19.1892 19.75 19.1891 19.75 19.1891 19.75H4.5C4.03587 19.75 3.59075 19.5656 3.26256 19.2374C2.93437 18.9092 2.75 18.4641 2.75 18V13.5C2.75 13.0359 2.93437 12.5908 3.26256 12.2626ZM4.75 13.75V17.75H19.0858L21.0858 15.75L19.0858 13.75H4.75Z" fill="currentColor" />
	</symbol>
	<!-- Settings -->
	<symbol xmlns="http://www.w3.org/2000/svg" viewBox="0 0 19.8 21.1" id="settings">
		<path d="M21.75 11.7154C21.7437 11.5984 21.6962 11.4875 21.6158 11.4022C21.5355 11.3169 21.4276 11.2628 21.3113 11.2495L20.1094 11.0549C20.0553 11.0461 20.0056 11.02 19.9676 10.9805C19.9295 10.9411 19.9053 10.8904 19.8984 10.836C19.8755 10.6884 19.8516 10.5351 19.8188 10.3898C19.8082 10.3369 19.8144 10.2821 19.8365 10.2329C19.8586 10.1838 19.8955 10.1427 19.942 10.1156L21.0098 9.5226C21.1159 9.46855 21.1983 9.37741 21.2416 9.26652C21.2848 9.15563 21.2857 9.03273 21.2442 8.92119L21.0591 8.41025C21.0185 8.29833 20.938 8.20532 20.8331 8.14901C20.7282 8.09271 20.6062 8.07707 20.4905 8.1051L19.2928 8.33947C19.2393 8.34904 19.1841 8.34146 19.1351 8.31781C19.0861 8.29416 19.0458 8.25564 19.02 8.20775C18.9502 8.07697 18.8742 7.94385 18.795 7.81306C18.7662 7.76647 18.7528 7.71205 18.7565 7.65741C18.7602 7.60278 18.7808 7.55067 18.8156 7.50838L19.6125 6.58775C19.6935 6.50084 19.74 6.38742 19.7433 6.2687C19.7467 6.14998 19.7067 6.03411 19.6308 5.94275L19.283 5.5251C19.2073 5.43343 19.1003 5.37309 18.9827 5.35577C18.8651 5.33845 18.7453 5.36538 18.6464 5.43135L17.5978 6.06088C17.5513 6.08873 17.4971 6.1009 17.4432 6.09558C17.3892 6.09026 17.3384 6.06774 17.2983 6.03135C17.1825 5.92963 17.0639 5.83166 16.9528 5.74119C16.9102 5.70754 16.8794 5.66118 16.8649 5.60883C16.8504 5.55649 16.8529 5.50089 16.8722 5.4501L17.3063 4.30635C17.3535 4.19721 17.3591 4.07452 17.3218 3.96157C17.2846 3.84863 17.2071 3.7533 17.1042 3.69369L16.6313 3.4176C16.5283 3.35821 16.407 3.33891 16.2907 3.36338C16.1743 3.38786 16.0711 3.4544 16.0008 3.55025L15.2344 4.51306C15.2068 4.55491 15.1655 4.58585 15.1176 4.60057C15.0697 4.61528 15.0182 4.61285 14.9719 4.59369C14.9433 4.58197 14.7014 4.48306 14.5134 4.42025C14.4619 4.40345 14.4171 4.37059 14.3855 4.32648C14.354 4.28237 14.3374 4.22932 14.3381 4.1751L14.3564 2.95306C14.3629 2.83374 14.3258 2.71613 14.2518 2.62225C14.1779 2.52837 14.0722 2.46467 13.9547 2.44306L13.418 2.34931C13.301 2.32911 13.1807 2.35205 13.0794 2.41387C12.9781 2.47568 12.9027 2.57217 12.8672 2.68541L12.4688 3.84838C12.4507 3.9 12.4165 3.94447 12.3713 3.97526C12.3261 4.00606 12.2722 4.02155 12.2175 4.01947H11.7605C11.7062 4.02059 11.653 4.00456 11.6084 3.97367C11.5638 3.94278 11.5301 3.89861 11.512 3.84744L11.1155 2.69103C11.0806 2.57697 11.0053 2.47954 10.9038 2.41698C10.8022 2.35443 10.6813 2.33103 10.5638 2.35119L10.0261 2.44494C9.90932 2.46637 9.80428 2.52945 9.73048 2.62247C9.65669 2.71549 9.61915 2.83212 9.62485 2.95072L9.6436 4.17697C9.64398 4.23201 9.62656 4.28569 9.59396 4.33004C9.56136 4.37438 9.51531 4.40701 9.46266 4.42306C9.35532 4.46478 9.12235 4.55385 9.01641 4.59322C8.92266 4.62697 8.82048 4.58994 8.73798 4.49478L7.97579 3.55728C7.90586 3.46085 7.80275 3.39366 7.68628 3.36866C7.56981 3.34365 7.4482 3.36258 7.34485 3.42181L6.87329 3.6951C6.76925 3.75481 6.69099 3.85093 6.6536 3.96492C6.61621 4.0789 6.62233 4.2027 6.67079 4.31244L7.10438 5.45338C7.1233 5.50427 7.12578 5.55982 7.11149 5.6122C7.0972 5.66459 7.06684 5.71117 7.02469 5.74541C6.91079 5.83916 6.79407 5.93291 6.67782 6.03697C6.6379 6.07308 6.58748 6.09548 6.53392 6.10087C6.48036 6.10627 6.42648 6.09439 6.38016 6.06697L5.34376 5.42525C5.24424 5.36052 5.12452 5.33432 5.00706 5.35158C4.8896 5.36884 4.78248 5.42837 4.70579 5.519L4.35938 5.93572C4.28244 6.02645 4.24166 6.14238 4.24486 6.2613C4.24806 6.38022 4.29501 6.49379 4.37673 6.58025L5.17735 7.49994C5.21288 7.54138 5.23412 7.59317 5.23792 7.64762C5.24172 7.70208 5.22788 7.75631 5.19845 7.80228C5.11829 7.92978 5.04188 8.06385 4.97251 8.19791C4.94656 8.24613 4.906 8.2849 4.85665 8.30865C4.8073 8.3324 4.7517 8.3399 4.69782 8.3301L3.50204 8.099C3.38626 8.07107 3.26425 8.08673 3.15929 8.14302C3.05433 8.1993 2.97377 8.29226 2.93298 8.40416L2.74548 8.91416C2.70403 9.02584 2.705 9.14885 2.7482 9.25987C2.7914 9.37089 2.87382 9.4622 2.97985 9.5165L4.04766 10.1095C4.09568 10.136 4.13378 10.1774 4.15619 10.2274C4.17859 10.2775 4.1841 10.3335 4.17188 10.387L4.16063 10.4465C4.13626 10.5773 4.11376 10.701 4.0922 10.8328C4.08474 10.8864 4.06051 10.9364 4.02296 10.9754C3.98541 11.0145 3.93647 11.0407 3.88313 11.0503L2.67891 11.2448C2.56115 11.2592 2.45267 11.3161 2.37374 11.4047C2.29482 11.4933 2.25083 11.6075 2.25001 11.7262V12.269C2.24932 12.3881 2.29285 12.5032 2.37218 12.5921C2.4515 12.6809 2.56097 12.7372 2.67938 12.7499L3.88313 12.944C3.93722 12.9528 3.98701 12.9789 4.02504 13.0183C4.06307 13.0578 4.08728 13.1085 4.09407 13.1629C4.11704 13.311 4.14095 13.4638 4.17376 13.6092C4.18433 13.662 4.17813 13.7168 4.15603 13.766C4.13393 13.8152 4.09703 13.8562 4.05048 13.8834L2.98313 14.4773C2.8771 14.5313 2.79464 14.6225 2.75142 14.7334C2.70821 14.8442 2.70726 14.9671 2.74876 15.0787L2.93626 15.5896C2.97696 15.7015 3.05743 15.7944 3.16231 15.8507C3.2672 15.907 3.38914 15.9227 3.50485 15.8948L4.70251 15.6628C4.75607 15.653 4.81133 15.6605 4.86035 15.6842C4.90937 15.7079 4.94962 15.7465 4.97532 15.7945C5.04563 15.9257 5.1211 16.0584 5.20032 16.1892C5.22923 16.2357 5.24279 16.2902 5.23909 16.3448C5.23539 16.3995 5.21461 16.4516 5.1797 16.4938L4.38282 17.414C4.30092 17.5003 4.25334 17.6134 4.24903 17.7323C4.24471 17.8512 4.28395 17.9675 4.35938 18.0595L4.70673 18.4771C4.78233 18.5689 4.88933 18.6293 5.00695 18.6466C5.12458 18.6639 5.24444 18.6369 5.34329 18.5709L6.39188 17.9413C6.43837 17.9135 6.49259 17.9013 6.54653 17.9066C6.60046 17.912 6.65126 17.9345 6.69141 17.9709C6.80766 18.0726 6.92579 18.1706 7.03688 18.261C7.07948 18.2947 7.11029 18.341 7.12487 18.3934C7.13944 18.4457 7.13703 18.5013 7.11798 18.5521L6.68344 19.6959C6.63617 19.805 6.63064 19.9277 6.66788 20.0406C6.70513 20.1536 6.78256 20.2489 6.88548 20.3085L7.35938 20.5823C7.46232 20.6417 7.58355 20.6611 7.69988 20.6367C7.81622 20.6123 7.91946 20.5459 7.98985 20.4501L8.76563 19.4962C8.83126 19.4151 8.93438 19.379 9.01079 19.4099C9.17391 19.4774 9.28313 19.5154 9.47673 19.5801C9.52829 19.5969 9.57314 19.6298 9.60476 19.6739C9.63637 19.718 9.6531 19.771 9.65251 19.8253L9.63376 21.0463C9.62743 21.1656 9.6647 21.2831 9.73861 21.377C9.81252 21.4708 9.91803 21.5346 10.0355 21.5563L10.5722 21.6501C10.6892 21.6705 10.8095 21.6477 10.9109 21.5858C11.0123 21.524 11.0876 21.4273 11.123 21.314L11.5214 20.1529C11.5394 20.1012 11.5736 20.0567 11.6188 20.0259C11.6641 19.9951 11.718 19.9797 11.7727 19.9818H12.2297C12.284 19.9806 12.3372 19.9966 12.3818 20.0275C12.4264 20.0584 12.4602 20.1026 12.4781 20.1538L12.8752 21.3103C12.9059 21.4106 12.968 21.4985 13.0524 21.561C13.1368 21.6236 13.2389 21.6574 13.3439 21.6576C13.3719 21.6577 13.3998 21.6551 13.4274 21.6501L13.965 21.5563C14.0818 21.5349 14.1868 21.4718 14.2606 21.3788C14.3344 21.2858 14.372 21.1692 14.3663 21.0506L14.3475 19.8243C14.3471 19.7703 14.364 19.7175 14.3956 19.6737C14.4272 19.6299 14.4719 19.5973 14.5233 19.5806C14.7033 19.5201 14.8299 19.4713 14.9409 19.4282L14.9691 19.4174C15.1144 19.3673 15.1847 19.4282 15.2255 19.4788L16.0106 20.4459C16.081 20.5415 16.1842 20.6079 16.3004 20.6323C16.4166 20.6567 16.5377 20.6374 16.6406 20.5781L17.1127 20.3048C17.2159 20.2451 17.2936 20.1496 17.3308 20.0363C17.3681 19.923 17.3624 19.8 17.3147 19.6907L16.8816 18.5498C16.8625 18.499 16.8598 18.4434 16.874 18.391C16.8883 18.3386 16.9186 18.292 16.9608 18.2578C17.0747 18.164 17.1914 18.0703 17.3077 17.9662C17.3478 17.93 17.3986 17.9076 17.4524 17.9024C17.5062 17.8971 17.5603 17.9093 17.6067 17.9371L18.6563 18.5653C18.7557 18.6301 18.8755 18.6563 18.993 18.6391C19.1105 18.6218 19.2176 18.5622 19.2942 18.4715L19.6411 18.0543C19.718 17.9636 19.7588 17.8477 19.7556 17.7287C19.7524 17.6098 19.7055 17.4962 19.6238 17.4098L18.8241 16.4878C18.7885 16.4463 18.7673 16.3945 18.7635 16.3401C18.7597 16.2856 18.7735 16.2314 18.803 16.1854C18.8831 16.0584 18.9595 15.9243 19.0289 15.7898C19.055 15.7417 19.0956 15.703 19.1449 15.6792C19.1942 15.6555 19.2497 15.6479 19.3036 15.6576L20.498 15.8906C20.6138 15.9185 20.7358 15.9028 20.8407 15.8465C20.9457 15.7903 21.0262 15.6973 21.067 15.5854L21.2522 15.0754C21.2936 14.9638 21.2926 14.8409 21.2494 14.7299C21.2062 14.619 21.1238 14.5277 21.0178 14.4735L19.9491 13.8796C19.9017 13.8529 19.8643 13.8116 19.8422 13.7618C19.8202 13.7121 19.8147 13.6566 19.8267 13.6035L19.838 13.544C19.8624 13.4132 19.8849 13.2895 19.9064 13.1578C19.9139 13.1041 19.9381 13.0541 19.9757 13.0151C20.0132 12.976 20.0621 12.9498 20.1155 12.9403L21.3197 12.7462C21.4378 12.7319 21.5466 12.6752 21.6258 12.5865C21.705 12.4978 21.7492 12.3832 21.75 12.2643V11.7154ZM8.51016 16.1217C8.45175 16.2232 8.37007 16.3095 8.27183 16.3734C8.1736 16.4372 8.06161 16.4769 7.94507 16.489C7.82853 16.5012 7.71077 16.4856 7.60145 16.4434C7.49214 16.4012 7.3944 16.3337 7.31626 16.2463C6.26023 15.0787 5.67715 13.5595 5.68079 11.9851C5.68443 10.4108 6.27453 8.89425 7.33595 7.7315C7.41449 7.64423 7.51265 7.57686 7.62234 7.53496C7.73203 7.49306 7.8501 7.47782 7.96683 7.4905C8.08356 7.50318 8.19561 7.54342 8.29374 7.60789C8.39187 7.67237 8.47328 7.75924 8.53126 7.86135L10.6711 11.6278C10.7354 11.7401 10.7692 11.8672 10.7692 11.9967C10.7692 12.1261 10.7354 12.2532 10.6711 12.3656L8.51016 16.1217ZM12 18.3332C11.5539 18.3333 11.1091 18.2862 10.673 18.1926C10.5594 18.1672 10.4533 18.1154 10.3634 18.0414C10.2736 17.9674 10.2024 17.8733 10.1557 17.7666C10.109 17.66 10.0881 17.5438 10.0946 17.4276C10.1012 17.3114 10.135 17.1983 10.1934 17.0976L12.3497 13.3476C12.4145 13.2346 12.5081 13.1407 12.6208 13.0755C12.7336 13.0102 12.8616 12.9758 12.9919 12.9759H17.3109C17.4273 12.9757 17.542 13.0029 17.6459 13.0554C17.7497 13.1078 17.8398 13.184 17.9087 13.2777C17.9777 13.3714 18.0235 13.48 18.0427 13.5948C18.0618 13.7096 18.0536 13.8272 18.0188 13.9382C17.1989 16.4845 14.8125 18.3332 12 18.3332ZM12.352 10.6504L10.2188 6.89385C10.1609 6.79297 10.1277 6.67991 10.1216 6.5638C10.1156 6.44769 10.137 6.33178 10.184 6.22546C10.2311 6.11914 10.3025 6.02537 10.3925 5.95175C10.4825 5.87813 10.5885 5.82671 10.702 5.80166C11.1288 5.71171 11.5638 5.66647 12 5.66666C14.8125 5.66666 17.1989 7.51541 18.0174 10.0631C18.0522 10.1741 18.0604 10.2917 18.0413 10.4065C18.0221 10.5212 17.9763 10.6299 17.9073 10.7236C17.8384 10.8173 17.7483 10.8935 17.6445 10.9459C17.5406 10.9984 17.4259 11.0256 17.3095 11.0254H12.997C12.8659 11.0257 12.7371 10.9911 12.6238 10.9252C12.5105 10.8593 12.4167 10.7645 12.352 10.6504Z" fill="currentColor" />
	</symbol>
	<!-- Help Circle -->
	<symbol xmlns="http://www.w3.org/2000/svg" viewBox="0 0 16 16" id="help" fill="none">
		<path d="M8 2.5a5.5 5.5 0 1 0 0 11 5.5 5.5 0 0 0 0-11z" stroke="currentColor" stroke-width="1.4" stroke-miterlimit="10" />
		<path d="M6.25 6.322s.026-.547.612-1.018c.347-.28.763-.36 1.138-.366.342-.005.647.052.83.139.312.148.92.511.92 1.284 0 .812-.531 1.181-1.137 1.587-.605.406-.77.847-.77 1.302" stroke="currentColor" stroke-width="1.4" stroke-miterlimit="10" stroke-linecap="round" />
		<path d="M7.813 11.5a.625.625 0 1 0 0-1.25.625.625 0 0 0 0 1.25z" fill="currentColor" />
	</symbol>
	<!-- search icon -->
	<symbol xmlns="http://www.w3.org/2000/svg" viewBox="0 0 19.7 19.6" id="search">
		<path d="M8.2.7C6.7.7 5.3 1.2 4.1 2c-1.2.8-2.2 2-2.7 3.3C.8 6.6.6 8.1.9 9.5s1 2.7 2 3.8 2.3 1.7 3.8 2c1.4.3 2.9.1 4.3-.4 1.3-.6 2.5-1.5 3.3-2.7.8-1.2 1.2-2.6 1.2-4.1 0-2-.8-3.8-2.2-5.2C12 1.5 10.1.7 8.2.7z" fill="none" stroke="currentColor" stroke-width="1.5" stroke-miterlimit="10">
		</path>
		<path d="M13.6 13.6l5.1 5.1" fill="none" stroke="currentColor" stroke-width="1.5" stroke-linecap="round" stroke-miterlimit="10">
		</path>
	</symbol>
	<!-- user login icon -->
	<symbol viewBox="0 0 25 24" fill="none" xmlns="http://www.w3.org/2000/svg" id="user-plus">
		<g clip-path="url(#clip0)" stroke="currentColor" stroke-width="1.5" stroke-linecap="round" stroke-linejoin="round">
			<path d="M16.5 21v-2a4 4 0 0 0-4-4h-7a4 4 0 0 0-4 4v2M9 11a4 4 0 1 0 0-8 4 4 0 0 0 0 8zm11.5-3v6m3-3h-6">
			</path>
		</g>
		<defs>
			<clipPath id="clip0">
				<path fill="currentColor" transform="translate(.5)" d="M0 0h24v24H0z">
				</path>
			</clipPath>
		</defs>
	</symbol>
	<!-- lock -->
	<symbol viewBox="0 0 24 24" fill="none" xmlns="http://www.w3.org/2000/svg" id="lock">
		<path d="M19 11H5a2 2 0 0 0-2 2v7a2 2 0 0 0 2 2h14a2 2 0 0 0 2-2v-7a2 2 0 0 0-2-2zM7 11V7a5 5 0 1 1 10 0v4" stroke="currentColor" stroke-width="1.5" stroke-linecap="round" stroke-linejoin="round">
		</path>
	</symbol>
	<!-- shopping cart -->
	<symbol viewBox="0 0 32 30" fill="none" xmlns="http://www.w3.org/2000/svg" id="shopping-cart">
		<path d="M11.667 29a1.333 1.333 0 1 0 0-2.667 1.333 1.333 0 0 0 0 2.667zm14.666 0a1.333 1.333 0 1 0 0-2.667 1.333 1.333 0 0 0 0 2.667z" fill="currentColor" fill-opacity=".99" stroke="currentColor" stroke-opacity=".99" stroke-width="2" stroke-linecap="round" stroke-linejoin="round">
		</path>
		<path d="M1 1h5.333l3.574 17.853A2.667 2.667 0 0 0 12.573 21h12.96a2.667 2.667 0 0 0 2.667-2.147l2.133-11.186H7.667" stroke="currentColor" stroke-opacity=".99" stroke-width="2" stroke-linecap="round" stroke-linejoin="round">
		</path>
	</symbol>
	<!-- hamburger icon -->
	<symbol viewBox="0 0 24 24" fill="none" xmlns="http://www.w3.org/2000/svg" id="menu">
		<path d="M3 12h18M3 6h18M3 18h18" stroke="currentColor" stroke-width="2" stroke-linecap="round" stroke-linejoin="round">
		</path>
	</symbol>
	<!-- trash icon -->
	<symbol viewBox="0 0 20 20" fill="none" xmlns="http://www.w3.org/2000/svg" id="trash">
		<path d="M2.5 5h15M6.667 5V3.333a1.667 1.667 0 0 1 1.666-1.666h3.334a1.667 1.667 0 0 1 1.666 1.666V5m2.5 0v11.667a1.667 1.667 0 0 1-1.666 1.666H5.833a1.667 1.667 0 0 1-1.666-1.666V5h11.666zm-7.5 4.167v5m3.334-5v5" stroke="currentColor" stroke-width="1.5" stroke-linecap="round" stroke-linejoin="round">
		</path>
	</symbol>
	<!-- close icon -->
	<symbol viewBox="0 0 14 14" fill="none" xmlns="http://www.w3.org/2000/svg" id="close">
		<path d="M13 1L1 13M1 1l12 12" stroke="currentColor" stroke-width="2" stroke-linecap="round" stroke-linejoin="round">
		</path>
	</symbol>
	<!-- heart icon -->
	<symbol viewBox="0 0 28 28" xmlns="http://www.w3.org/2000/svg" id="heart">
		<path d="M24.313 5.378a6.415 6.415 0 0 0-9.076 0L14 6.615l-1.237-1.237a6.418 6.418 0 1 0-9.077 9.077l1.237 1.237L14 24.768l9.076-9.076 1.237-1.237a6.416 6.416 0 0 0 0-9.077z" stroke-opacity=".99" stroke-width="2" stroke-linecap="round" stroke-linejoin="round">
		</path>
	</symbol>
	<!-- eye -->
	<symbol viewBox="0 0 23 18" fill="none" xmlns="http://www.w3.org/2000/svg" id="eye">
		<path d="M2.33 9s3.235-6 8.896-6c5.66 0 8.895 6 8.895 6s-3.234 6-8.895 6S2.33 9 2.33 9z" stroke="currentColor" stroke-width="1.5" stroke-linecap="round" stroke-linejoin="round">
		</path>
		<path d="M11.227 11.25c1.34 0 2.426-1.007 2.426-2.25s-1.086-2.25-2.426-2.25S8.8 7.757 8.8 9s1.086 2.25 2.426 2.25z" stroke="currentColor" stroke-width="1.5" stroke-linecap="round" stroke-linejoin="round">
		</path>
	</symbol>
	<!-- arrow left -->
	<symbol viewBox="0 0 8 12" fill="none" xmlns="http://www.w3.org/2000/svg" id="arrow-left">
		<path d="M6.5 11l-5-5 5-5" stroke="currentColor" stroke-width="2" stroke-linecap="round" stroke-linejoin="round">
		</path>
	</symbol>
	<!-- arrow right -->
	<symbol viewBox="0 0 8 12" fill="none" xmlns="http://www.w3.org/2000/svg" id="arrow-right">
		<path d="M1.5 11l5-5-5-5" stroke="currentColor" stroke-width="2" stroke-linecap="round" stroke-linejoin="round">
		</path>
	</symbol>
	<!-- star -->
	<symbol viewBox="0 0 20 19" fill="none" xmlns="http://www.w3.org/2000/svg" id="star">
		<path d="M9.049.927c.3-.921 1.603-.921 1.902 0l1.519 4.674a1 1 0 0 0 .95.69h4.915c.969 0 1.371 1.24.588 1.81l-3.976 2.888a1 1 0 0 0-.363 1.118l1.518 4.674c.3.922-.755 1.688-1.539 1.118l-3.975-2.888a1 1 0 0 0-1.176 0l-3.976 2.888c-.783.57-1.838-.197-1.538-1.118l1.518-4.674a1 1 0 0 0-.363-1.118L1.077 8.101c-.783-.57-.38-1.81.588-1.81h4.914a1 1 0 0 0 .951-.69L9.05.927z" fill="currentColor">
		</path>
	</symbol>
	<!-- alert circle -->
	<symbol viewBox="0 0 20 20" fill="none" xmlns="http://www.w3.org/2000/svg" id="alert-circle">
		<path d="M10 18.333a8.333 8.333 0 1 0 0-16.666 8.333 8.333 0 0 0 0 16.666zm0-11.666V10m0 3.333h.008" stroke="currentColor" stroke-linecap="round" stroke-linejoin="round">
		</path>
	</symbol>
	<!-- Close -->
	<symbol viewBox="0 0 24 24" fill="none" xmlns="http://www.w3.org/2000/svg" id="close">
		<path d="M18 6L6 18M6 6l12 12" stroke="currentColor" stroke-width="2" stroke-linecap="round" stroke-linejoin="round">
		</path>
	</symbol>
	<!-- Sheild Circle -->
	<symbol viewBox="0 0 48 48" fill="none" xmlns="http://www.w3.org/2000/svg" id="sheild-circle">
		<circle cx="24" cy="24" r="24" fill="#F4F0FC">
		</circle>
		<path d="M28.375 19.625l-6.06 7-2.69-2.636" stroke="#7A6CB1" stroke-width="2" stroke-linecap="round" stroke-linejoin="round">
		</path>
		<path d="M35.326 16.145c-4.89-.877-6.912-1.527-11.326-3.52-4.414 1.993-6.436 2.643-11.326 3.52-.886 14.042 10.483 18.89 11.326 19.23.843-.34 12.212-5.188 11.326-19.23z" stroke="#7A6CB1" stroke-width="2" stroke-linecap="round" stroke-linejoin="round">
		</path>
	</symbol>
	<!-- Error Circle -->
	<symbol viewBox="0 0 48 48" fill="none" xmlns="http://www.w3.org/2000/svg" id="error-circle">
		<circle cx="24" cy="24" r="24" fill="#FAE0E1">
		</circle>
		<path d="M15.028 34.192h18.64a1.751 1.751 0 0 0 1.541-2.58l-9.32-17.308c-.66-1.227-2.42-1.227-3.082 0l-9.32 17.309a1.748 1.748 0 0 0 1.541 2.58z" stroke="#EA3A42" stroke-width="2" stroke-linecap="round" stroke-linejoin="round">
		</path>
		<path d="M24.035 20.474l.314 6.671.314-6.669a.312.312 0 0 0-.317-.328.313.313 0 0 0-.31.326z" stroke="#EA3A42" stroke-width="2" stroke-linecap="round" stroke-linejoin="round">
		</path>
		<path d="M24.349 31.513a1.094 1.094 0 1 1 0-2.188 1.094 1.094 0 0 1 0 2.188z" fill="#EA3A42">
		</path>
	</symbol>
	<!-- Refresh -->
	<symbol viewBox="0 0 16 16" fill="none" xmlns="http://www.w3.org/2000/svg" id="refresh">
		<g clip-path="url(#clip0)" stroke="currentColor" stroke-width="1.4" stroke-miterlimit="10" stroke-linecap="round">
			<path d="M15.334 2.667v4h-4M.667 13.333v-4h4">
			</path>
			<path d="M2.34 6a6 6 0 0 1 9.9-2.24l3.093 2.907M.667 9.333L3.76 12.24a6 6 0 0 0 9.9-2.24">
			</path>
		</g>
		<defs>
			<clipPath id="clip0">
				<path fill="#fff" d="M0 0h16v16H0z">
				</path>
			</clipPath>
		</defs>
	</symbol>
	<!-- check-circle -->
	<symbol aria-hidden="true" data-prefix="fas" data-icon="check-circle" xmlns="http://www.w3.org/2000/svg" viewBox="0 0 512 512" id="check-circle">
		<path fill="hsl(203, 89%, 50%)" d="M504 256c0 136.967-111.033 248-248 248S8 392.967 8 256 119.033 8 256 8s248 111.033 248 248zM227.314 387.314l184-184c6.248-6.248 6.248-16.379 0-22.627l-22.627-22.627c-6.248-6.249-16.379-6.249-22.628 0L216 308.118l-70.059-70.059c-6.248-6.248-16.379-6.248-22.628 0l-22.627 22.627c-6.248 6.248-6.248 16.379 0 22.627l104 104c6.249 6.249 16.379 6.249 22.628.001z">
		</path>
	</symbol>
	<!-- error-circle -->
	<symbol aria-hidden="true" data-prefix="fas" data-icon="times-circle" xmlns="http://www.w3.org/2000/svg" viewBox="0 0 512 512" id="error">
		<path fill=" hsl(0, 79%, 63%)" d="M256 8C119 8 8 119 8 256s111 248 248 248 248-111 248-248S393 8 256 8zm121.6 313.1c4.7 4.7 4.7 12.3 0 17L338 377.6c-4.7 4.7-12.3 4.7-17 0L256 312l-65.1 65.6c-4.7 4.7-12.3 4.7-17 0L134.4 338c-4.7-4.7-4.7-12.3 0-17l65.6-65-65.6-65.1c-4.7-4.7-4.7-12.3 0-17l39.6-39.6c4.7-4.7 12.3-4.7 17 0l65 65.7 65.1-65.6c4.7-4.7 12.3-4.7 17 0l39.6 39.6c4.7 4.7 4.7 12.3 0 17L312 256l65.6 65.1z">
		</path>
	</symbol>
	<!-- question -->
	<symbol aria-hidden="true" data-prefix="fas" data-icon="question-circle" xmlns="http://www.w3.org/2000/svg" viewBox="0 0 512 512" id="question">
		<path fill="currentColor" d="M504 256c0 136.997-111.043 248-248 248S8 392.997 8 256C8 119.083 119.043 8 256 8s248 111.083 248 248zM262.655 90c-54.497 0-89.255 22.957-116.549 63.758-3.536 5.286-2.353 12.415 2.715 16.258l34.699 26.31c5.205 3.947 12.621 3.008 16.665-2.122 17.864-22.658 30.113-35.797 57.303-35.797 20.429 0 45.698 13.148 45.698 32.958 0 14.976-12.363 22.667-32.534 33.976C247.128 238.528 216 254.941 216 296v4c0 6.627 5.373 12 12 12h56c6.627 0 12-5.373 12-12v-1.333c0-28.462 83.186-29.647 83.186-106.667 0-58.002-60.165-102-116.531-102zM256 338c-25.365 0-46 20.635-46 46 0 25.364 20.635 46 46 46s46-20.636 46-46c0-25.365-20.635-46-46-46z">
		</path>
	</symbol>
	<!-- Edit -->
	<symbol xmlns="http://www.w3.org/2000/svg" viewBox="0 0 16 16" id="edit" fill="none">
		<path d="M12 7V12.75C12 12.9142 11.9677 13.0767 11.9048 13.2284C11.842 13.38 11.75 13.5178 11.6339 13.6339C11.5178 13.75 11.38 13.842 11.2284 13.9048C11.0767 13.9677 10.9142 14 10.75 14H3.25C2.91848 14 2.60054 13.8683 2.36612 13.6339C2.1317 13.3995 2 13.0815 2 12.75V5.25C2 4.91848 2.1317 4.60054 2.36612 4.36612C2.60054 4.1317 2.91848 4 3.25 4H8.48375" stroke="currentColor" stroke-width="1.4" stroke-linecap="round" stroke-linejoin="round" />
		<path d="M14.3731 1.66407C14.3274 1.6139 14.2721 1.5735 14.2104 1.54533C14.1486 1.51715 14.0819 1.50178 14.014 1.50015C13.9462 1.49851 13.8788 1.51064 13.8158 1.53581C13.7528 1.56098 13.6955 1.59866 13.6475 1.64657L13.2609 2.03126C13.2141 2.07814 13.1877 2.1417 13.1877 2.20798C13.1877 2.27425 13.2141 2.33782 13.2609 2.38469L13.6153 2.73844C13.6385 2.76178 13.6661 2.7803 13.6965 2.79294C13.7269 2.80557 13.7595 2.81208 13.7925 2.81208C13.8254 2.81208 13.858 2.80557 13.8884 2.79294C13.9188 2.7803 13.9464 2.76178 13.9697 2.73844L14.3465 2.36344C14.5372 2.17313 14.555 1.86313 14.3731 1.66407Z" fill="currentColor" />
		<path d="M12.4792 2.81247L6.83792 8.44372C6.80372 8.47779 6.77886 8.52008 6.76573 8.56654L6.50479 9.34372C6.49854 9.36481 6.4981 9.3872 6.50351 9.40852C6.50892 9.42983 6.51999 9.4493 6.53554 9.46485C6.5511 9.4804 6.57056 9.49147 6.59188 9.49688C6.6132 9.50229 6.63558 9.50185 6.65667 9.4956L7.43323 9.23466C7.47969 9.22154 7.52198 9.19668 7.55604 9.16247L13.1873 3.5206C13.2394 3.46794 13.2686 3.39686 13.2686 3.32279C13.2686 3.24871 13.2394 3.17763 13.1873 3.12497L12.8764 2.81247C12.8236 2.7599 12.7522 2.73038 12.6778 2.73038C12.6033 2.73038 12.5319 2.7599 12.4792 2.81247Z" fill="currentColor" />
	</symbol>
	<!-- trophy -->
	<symbol xmlns="http://www.w3.org/2000/svg" viewBox="0 0 16 16" id="trophy" fill="none">
		<path d="M5.5 14.5H10.5" stroke="currentColor" stroke-width="1.4" stroke-linecap="round" stroke-linejoin="round" />
		<path d="M8 14.5V10.5" stroke="currentColor" stroke-width="1.4" stroke-linecap="round" stroke-linejoin="round" />
		<path d="M12 7C12 5.4175 11.9975 2.79281 11.9963 2C11.9963 1.86739 11.9436 1.74021 11.8498 1.64645C11.7561 1.55268 11.6289 1.5 11.4963 1.5L4.50284 1.50812C4.3705 1.50812 4.24356 1.56059 4.14984 1.65402C4.05612 1.74745 4.00326 1.87422 4.00284 2.00656C4.00284 2.96219 3.99878 6.04312 3.99878 7C3.99878 9.00875 6.59253 10.5 7.99878 10.5C9.40503 10.5 12 9.00875 12 7Z" stroke="currentColor" stroke-width="1.4" stroke-linecap="round" stroke-linejoin="round" />
		<path d="M4 3H1.5V3.5C1.5 5.22563 2.54844 7 4 7" stroke="currentColor" stroke-width="1.4" stroke-linecap="round" stroke-linejoin="round" />
		<path d="M12 3H14.5V3.5C14.5 5.22563 13.4516 7 12 7" stroke="currentColor" stroke-width="1.4" stroke-linecap="round" stroke-linejoin="round" />
	</symbol>
	<!-- eye -->
	<symbol xmlns="http://www.w3.org/2000/svg" viewBox="0 0 16 16" id="eye" fill="none">
		<path d="M7.98941 3.5C5.55378 3.5 3.05534 4.90969 1.08847 7.72906C1.03233 7.81042 1.00156 7.9066 1.00006 8.00544C0.998556 8.10428 1.02639 8.20135 1.08003 8.28438C2.59128 10.65 5.05628 12.5 7.98941 12.5C10.8907 12.5 13.4063 10.6444 14.9203 8.27344C14.9727 8.19203 15.0006 8.09727 15.0006 8.00047C15.0006 7.90366 14.9727 7.8089 14.9203 7.7275C13.4028 5.38375 10.8688 3.5 7.98941 3.5Z" stroke="currentColor" stroke-width="1.4" stroke-linecap="round" stroke-linejoin="round" />
		<path d="M8 10.5C9.38071 10.5 10.5 9.38071 10.5 8C10.5 6.61929 9.38071 5.5 8 5.5C6.61929 5.5 5.5 6.61929 5.5 8C5.5 9.38071 6.61929 10.5 8 10.5Z" stroke="currentColor" stroke-width="1.4" stroke-miterlimit="10" />
	</symbol>
	<!-- price tag -->
	<symbol xmlns="http://www.w3.org/2000/svg" viewBox="0 0 16 16" id="priceTag" fill="none">
		<path d="M13.6015 1.5H9.76084C9.64142 1.49991 9.52682 1.5471 9.44209 1.63125L1.76397 9.30938C1.59585 9.47832 1.50146 9.70697 1.50146 9.94531C1.50146 10.1837 1.59585 10.4123 1.76397 10.5813L5.42022 14.2375C5.58916 14.4056 5.81781 14.5 6.05615 14.5C6.2945 14.5 6.52314 14.4056 6.69209 14.2375L14.3671 6.5625C14.4512 6.47777 14.4984 6.36317 14.4983 6.24375V2.4C14.4989 2.28191 14.4761 2.16488 14.4313 2.05563C14.3865 1.94638 14.3205 1.84707 14.2371 1.76342C14.1538 1.67978 14.0547 1.61344 13.9456 1.56823C13.8365 1.52302 13.7196 1.49983 13.6015 1.5Z" stroke="currentColor" stroke-width="1.4" stroke-linecap="round" stroke-linejoin="round" />
		<path d="M12 5C11.8022 5 11.6089 4.94135 11.4444 4.83147C11.28 4.72159 11.1518 4.56541 11.0761 4.38268C11.0004 4.19996 10.9806 3.99889 11.0192 3.80491C11.0578 3.61093 11.153 3.43275 11.2929 3.29289C11.4327 3.15304 11.6109 3.0578 11.8049 3.01922C11.9989 2.98063 12.2 3.00043 12.3827 3.07612C12.5654 3.15181 12.7216 3.27998 12.8315 3.44443C12.9414 3.60888 13 3.80222 13 4C13 4.26522 12.8947 4.51957 12.7071 4.70711C12.5196 4.89464 12.2652 5 12 5Z" fill="currentColor" />
	</symbol>
	<!-- image -->
	<symbol xmlns="http://www.w3.org/2000/svg" viewBox="0 0 16 16" id="image" fill="none">
		<path d="M13 2.5H3C2.17157 2.5 1.5 3.17157 1.5 4V12C1.5 12.8284 2.17157 13.5 3 13.5H13C13.8284 13.5 14.5 12.8284 14.5 12V4C14.5 3.17157 13.8284 2.5 13 2.5Z" stroke="currentColor " stroke-width="1.4" stroke-linecap="round" stroke-linejoin="round" />
		<path d="M10.5 6.5C11.0523 6.5 11.5 6.05228 11.5 5.5C11.5 4.94772 11.0523 4.5 10.5 4.5C9.94772 4.5 9.5 4.94772 9.5 5.5C9.5 6.05228 9.94772 6.5 10.5 6.5Z" stroke="currentColor " stroke-width="1.4" stroke-linecap="round" stroke-linejoin="round" />
		<path d="M9.5 10.4934L6.66687 7.66562C6.48659 7.48538 6.24428 7.38079 5.98947 7.37324C5.73465 7.36569 5.48657 7.45574 5.29594 7.62499L1.5 11" stroke="currentColor " stroke-width="1.4" stroke-linecap="round" stroke-linejoin="round" />
		<path d="M7 13.5L10.8544 9.64562C11.0306 9.469 11.2666 9.36466 11.5158 9.3531C11.7651 9.34153 12.0097 9.42358 12.2016 9.58312L14.5 11.5" stroke="currentColor " stroke-width="1.4" stroke-linecap="round" stroke-linejoin="round" />
	</symbol>
	<!-- shapes -->
	<symbol xmlns="http://www.w3.org/2000/svg" viewBox="0 0 16 16" id="shapes" fill="none">
		<path d="M10.5 10H1L5.75 1.5L10.5 10Z" stroke="currentColor" stroke-width="1.4" stroke-linejoin="round" />
		<path d="M8.29125 6.07845C9.15251 5.59325 10.1496 5.40514 11.1284 5.54319C12.1073 5.68124 13.0134 6.13776 13.7069 6.84223C14.4004 7.54671 14.8426 8.45993 14.9652 9.44082C15.0879 10.4217 14.8841 11.4157 14.3854 12.2692C13.8867 13.1228 13.1209 13.7883 12.2061 14.1631C11.2914 14.5379 10.2787 14.6011 9.32452 14.3429C8.37031 14.0846 7.52768 13.5194 6.92679 12.7345C6.3259 11.9495 6.0002 10.9886 6 10" stroke="currentColor" stroke-width="1.4" stroke-linejoin="round" />
	</symbol>
	<!-- Toggle Close -->
	<symbol xmlns="http://www.w3.org/2000/svg" viewBox="0 0 14 14" id="toggleClose" fill="none">
		<circle cx="7" cy="7" r="6" stroke="currentColor" stroke-width="2" />
	</symbol>
	<!-- Toggle Open -->
	<symbol xmlns="http://www.w3.org/2000/svg" viewBox="0 0 2 14" id="toggleOpen" fill="none">
		<rect width="2" height="14" rx="1" transform="matrix(-1 0 0 1 2 0)" fill="currentColor" />
	</symbol>
	<!-- Medal -->
	<symbol viewBox="0 0 16 16" fill="none" xmlns="http://www.w3.org/2000/svg" id="medal">
		<path d="M8 9a4 4 0 1 0 0-8 4 4 0 0 0 0 8z" stroke="currentColor" stroke-width="1.4" stroke-linecap="round" stroke-linejoin="round">
		</path>
		<path d="M4.49 7.12L1.5 12.5l2.714-.013a.5.5 0 0 1 .432.244L6 15l2.76-6.073M11.454 7l3.046 5.5-2.714-.013a.5.5 0 0 0-.432.244L10 15l-2-4.4M8 7a2 2 0 1 0 0-4 2 2 0 0 0 0 4z" stroke="currentColor" stroke-width="1.4" stroke-linecap="round" stroke-linejoin="round">
		</path>
	</symbol>
	<!-- Block -->
	<symbol xmlns="http://www.w3.org/2000/svg" viewBox="0 0 185 185" id="block" fill="none">
		<path fill="currentColor" d="M0 92.5C0 143.505 41.495 185 92.5 185S185 143.505 185 92.5 143.505 0 92.5 0 0 41.495 0 92.5zm170 0c0 42.733-34.767 77.5-77.5 77.5-18.671 0-35.821-6.639-49.215-17.678L152.322 43.284C163.361 56.679 170 73.828 170 92.5zM92.5 15c18.671 0 35.821 6.639 49.215 17.678L32.678 141.716C21.639 128.321 15 111.172 15 92.5 15 49.767 49.767 15 92.5 15z">
		</path>
	</symbol>
	<!-- More -->
	<symbol fill="none" xmlns="http://www.w3.org/2000/svg" viewBox="0 0 16 4" id="more">
		<path d="M4 2a2 2 0 11-4 0 2 2 0 014 0zm6 0a2 2 0 11-4 0 2 2 0 014 0zm4 2a2 2 0 100-4 2 2 0 000 4z" fill="currentColor">
		</path>
	</symbol>
	<!-- More Vertical -->
	<symbol fill="none" xmlns="http://www.w3.org/2000/svg" viewBox="0 -2 4 20" id="more-vertical">
		<path d="M2 4a2 2 0 110-4 2 2 0 010 4zm0 6a2 2 0 110-4 2 2 0 010 4zm-2 4a2 2 0 104 0 2 2 0 00-4 0z" fill="currentColor">
		</path>
	</symbol>
	<!-- Plus -->
	<symbol xmlns="http://www.w3.org/2000/svg" viewBox="0 0 16 16" id="plus" fill="none">
		<path d="M8 3.5V12.5" stroke="currentColor" stroke-width="1.4" stroke-linecap="round" stroke-linejoin="round" />
		<path d="M12.5 8H3.5" stroke="currentColor" stroke-width="1.4" stroke-linecap="round" stroke-linejoin="round" />
	</symbol>
	<!-- Remove Cart -->
	<symbol fill="none" xmlns="http://www.w3.org/2000/svg" viewBox="0 0 16 16" id="remove-cart">
		<g clip-path="url(#clip0)" stroke="currentColor" stroke-width="1.4" stroke-linecap="round" stroke-linejoin="round">
			<path d="M5.5 13.5a.5.5 0 100-1 .5.5 0 000 1zm7 0a.5.5 0 100-1 .5.5 0 000 1zm-11-11h2L5 11h8">
			</path>
			<path d="M5 9h7.795a.25.25 0 00.245-.2l.9-4.5m-3.005 1.376l-3.5-3.5m3.5 0l-3.5 3.5">
			</path>
		</g>
		<defs>
			<clipPath id="clip0">
				<path fill="#fff" d="M0 0h16v16H0z">
				</path>
			</clipPath>
		</defs>
	</symbol>
	<!-- Add User -->
	<symbol fill="none" xmlns="http://www.w3.org/2000/svg" viewBox="0 0 16 16" id="add-user">
		<path d="M11.749 4.5c-.123 1.652-1.375 3-2.75 3s-2.63-1.348-2.75-3c-.125-1.719 1.094-3 2.75-3s2.875 1.313 2.75 3z" stroke="#9B9B9B" stroke-width="1.4" stroke-linecap="round" stroke-linejoin="round">
		</path>
		<path d="M9 9.5c-2.718 0-5.478 1.5-5.988 4.331-.063.341.131.669.489.669h11c.357 0 .55-.328.488-.669C14.48 11 11.72 9.5 9 9.5z" stroke="#9B9B9B" stroke-width="1.4" stroke-miterlimit="10">
		</path>
		<path d="M2.75 5.5V9M4.5 7.25H1" stroke="#9B9B9B" stroke-width="1.4" stroke-linecap="round" stroke-linejoin="round">
		</path>
	</symbol>
	<!-- Gift -->
	<symbol fill="none" xmlns="http://www.w3.org/2000/svg" viewBox="0 0 16 16" id="gift">
		<path d="M8 3.25V5h1.75A1.75 1.75 0 108 3.25v0zm0 0V5H6.25A1.75 1.75 0 118 3.25v0zM13 5H3a1 1 0 00-1 1v1.5a1 1 0 001 1h10a1 1 0 001-1V6a1 1 0 00-1-1zm0 3.5V13a1.5 1.5 0 01-1.5 1.5h-7A1.5 1.5 0 013 13V8.5M8 5v9.5" stroke="currentColor" stroke-width="1.4">
		</path>
	</symbol>
	<!-- Filter -->
	<symbol xmlns="http://www.w3.org/2000/svg" viewBox="0 0 12 12" id="filter" fill="none">
		<path d="M11 1.5H1L5 6.23V9.5L7 10.5V6.23L11 1.5Z" stroke="currentColor" stroke-width="1.4" stroke-linecap="round" stroke-linejoin="round" />
	</symbol>
	<!-- Plus Circle -->
	<symbol fill="none" xmlns="http://www.w3.org/2000/svg" viewBox="0 0 16 16" id="plus-circle">
		<path d="M14 8c0-3.313-2.688-6-6-6-3.313 0-6 2.688-6 6 0 3.313 2.688 6 6 6 3.313 0 6-2.688 6-6z" stroke="#fff" stroke-width="1.4" stroke-miterlimit="10">
		</path>
		<path d="M8 5.5v5M10.5 8h-5" stroke="#fff" stroke-width="1.4" stroke-linecap="round" stroke-linejoin="round">
		</path>
	</symbol>
<!-- Close  -->
 <symbol id="close" version="1.1" xml:space="preserve" xmlns="http://www.w3.org/2000/svg" xmlns:xlink="http://www.w3.org/1999/xlink" viewBox="0 0 512 512">
    <path d="M443.6,387.1L312.4,255.4l131.5-130c5.4-5.4,5.4-14.2,0-19.6l-37.4-37.6c-2.6-2.6-6.1-4-9.8-4c-3.7,0-7.2,1.5-9.8,4  L256,197.8L124.9,68.3c-2.6-2.6-6.1-4-9.8-4c-3.7,0-7.2,1.5-9.8,4L68,105.9c-5.4,5.4-5.4,14.2,0,19.6l131.5,130L68.4,387.1  c-2.6,2.6-4.1,6.1-4.1,9.8c0,3.7,1.4,7.2,4.1,9.8l37.4,37.6c2.7,2.7,6.2,4.1,9.8,4.1c3.5,0,7.1-1.3,9.8-4.1L256,313.1l130.7,131.1  c2.7,2.7,6.2,4.1,9.8,4.1c3.5,0,7.1-1.3,9.8-4.1l37.4-37.6c2.6-2.6,4.1-6.1,4.1-9.8C447.7,393.2,446.2,389.7,443.6,387.1z"></path>
  </symbol>

</svg>

	